<svg width="44" height="25" viewBox="0 0 44 25" fill="none" xmlns="http://www.w3.org/2000/svg">
<path d="M6 2C6 2.87695 6 6.10599 6 7" stroke="black" stroke-width="3" stroke-linecap="round"/>
<path d="M2 8H11" stroke="black" stroke-width="3" stroke-linecap="round"/>
<path d="M4.00172 15.7606C3.94496 13.7141 5.29581 11.7612 7.38314 12.0238C9.65271 12.0238 9.25748 15.6807 7.884 17.0937C5.94114 19.0926 4.047 17.3932 4.00172 15.7606Z" stroke="black" stroke-width="3" stroke-linecap="round"/>
<path d="M15.8945 4.7168C16.0588 9.65871 15.8656 13.8988 15.6733 18.1191" stroke="black" stroke-width="3" stroke-linecap="round"/>
<path d="M17.0258 12.9726C18.1439 13.0236 19.0295 12.4421 19.7512 11.946" stroke="black" stroke-width="3" stroke-linecap="round"/>
<path d="M21.3438 4.24609C21.4558 6.10231 21.3454 8.48099 21.2965 9.55449C21.1815 12.0779 21.2425 14.5971 21.1274 17.1218C21.0766 18.2362 21.0258 19.3506 20.975 20.4651" stroke="black" stroke-width="3" stroke-linecap="round"/>
<path d="M42 3C42 5.71073 42 11.0877 42 14" stroke="black" stroke-width="3" stroke-linecap="round"/>
<path d="M30 4.85742C30 6.14515 30 11.743 30 12.5717" stroke="black" stroke-width="3" stroke-linecap="round"/>
<path d="M30.7109 8.28516C31.4255 8.28516 33.5685 8.28516 34.2824 8.28516" stroke="black" stroke-width="3" stroke-linecap="round"/>
<path d="M35 4C35 6.83794 35 9.65017 35 12.5714" stroke="black" stroke-width="3" stroke-linecap="round"/>
<path d="M30.7109 12.5723C31.0864 12.5723 33.9044 12.5723 34.2824 12.5723" stroke="black" stroke-width="3" stroke-linecap="round"/>
<path d="M36.2575 17.0559C33.8017 17.2426 33.4297 20.63 34.7531 22.0277C35.4356 22.7485 36.4155 23.1119 37.3988 22.9695C40.8705 22.8091 41.2253 16.3356 36.2588 17.0559" stroke="black" stroke-width="3" stroke-linecap="round"/>
</svg>
