<svg width="97" height="27" viewBox="0 0 97 27" fill="none" xmlns="http://www.w3.org/2000/svg">
<path d="M61.0977 6.92301C63.5623 6.92301 66.2048 7.13214 68.6473 6.7832" stroke="black" stroke-width="3" stroke-linecap="round"/>
<path d="M63.4727 7.76367C63.6588 10.277 63.6125 12.7949 63.6125 15.3133" stroke="black" stroke-width="3" stroke-linecap="round"/>
<path d="M66.8278 8.46094C66.866 10.2213 66.8869 13.466 66.4414 15.2481" stroke="black" stroke-width="3" stroke-linecap="round"/>
<path d="M61.3789 15.7324C64.3361 16.1617 66.138 16.1397 69.1198 16.1397" stroke="black" stroke-width="3" stroke-linecap="round"/>
<path d="M70.5273 11.0321C71.5747 10.9933 71.9419 11.0265 72.8849 11.032" stroke="black" stroke-width="3" stroke-linecap="round"/>
<path d="M74.3008 6.7832C74.3008 10.753 74.3008 15.0466 74.3008 19.0424" stroke="black" stroke-width="3" stroke-linecap="round"/>
<path d="M78.0703 3.95508C78.1587 8.04945 78.0703 19.3714 78.0703 23.2868" stroke="black" stroke-width="3" stroke-linecap="round"/>
<path d="M85.2649 4.95803C82.5631 5.16342 82.1538 8.89012 83.6098 10.4279C84.3606 11.2209 85.4387 11.6207 86.5205 11.464C90.3401 11.2876 90.7304 4.16556 85.2663 4.95803" stroke="black" stroke-width="3" stroke-linecap="round"/>
<path d="M95.043 3.95312C95.043 5.32902 95.043 6.7078 95.043 8.07963C95.043 10.2032 95.043 13.164 95.043 15.2693" stroke="black" stroke-width="3" stroke-linecap="round"/>
<path d="M86.5692 17.1562C86.5692 18.3185 86.5692 20.9411 86.5692 22.1034C86.5692 22.1923 86.5235 22.4576 86.5944 22.5198C86.748 23.0498 87.0281 22.8541 87.8403 22.8794C88.7393 22.9074 94.0136 22.8794 94.9129 22.8794" stroke="black" stroke-width="3" stroke-linecap="round"/>
<path d="M40.8281 4.99767C42.392 4.99767 44.0225 4.87425 45.5794 5.07988C45.9783 5.13256 46.3452 5.16259 46.4179 5.60597C46.6324 6.91436 46.4752 12.06 46.4752 13.3854" stroke="black" stroke-width="3" stroke-linecap="round"/>
<path d="M41.2891 10.5566C42.9051 10.5566 44.404 10.5566 46.0041 10.5566" stroke="black" stroke-width="3" stroke-linecap="round"/>
<path d="M51.3359 3.96094C51.6638 7.25412 51.6638 10.0898 51.6638 12.9122" stroke="black" stroke-width="3" stroke-linecap="round"/>
<path d="M52.6055 9.43796C53.5485 9.43796 54.2716 9.02294 54.8599 8.66992" stroke="black" stroke-width="3" stroke-linecap="round"/>
<path d="M55.9062 3.48242C56.0718 4.71783 56.0701 6.30869 56.0701 7.02662C56.0701 8.71421 56.2181 10.3936 56.2181 12.0821C56.2181 12.8274 56.2181 13.5727 56.2181 14.318" stroke="black" stroke-width="3" stroke-linecap="round"/>
<path d="M46.4414 18.4923C47.892 18.3846 48.6342 18.0537 51.7647 17.7634C52.5813 17.6884 53.4585 17.5067 53.4585 18.3846C53.5007 19.1435 53.897 24.6322 52.5813 24.6322C50.227 24.7794 47.3185 25.0704 46.4414 24.6319" stroke="black" stroke-width="3" stroke-linecap="round"/>
<path d="M46.332 18.4922C45.8935 20.2465 45.8935 22.8779 46.332 23.755" stroke="black" stroke-width="3" stroke-linecap="round"/>
<path d="M6 2V3.40464" stroke="black" stroke-width="3" stroke-linecap="round"/>
<path d="M2 4C3.92808 4 5.85617 4 7.78425 4C8.25818 4 8.73211 4 9.20604 4C9.47158 4 9.73391 4 10 4" stroke="black" stroke-width="3" stroke-linecap="round"/>
<path d="M3.53125 10.3043C3.53125 8.92759 4.00626 7.96612 5.36689 7.55094C7.01484 7.04809 8.12226 7.55088 8.99068 8.65271C9.95599 10.7632 8.12035 12.5989 6.74455 12.5989C3.99211 12.5989 3.53125 11.6811 3.53125 10.3043Z" stroke="black" stroke-width="3" stroke-linecap="round"/>
<path d="M1.69531 16.0812C3.47019 16.0812 8.6406 16.0556 10.4146 16.1195" stroke="black" stroke-width="3" stroke-linecap="round"/>
<path d="M14.8152 5.21875C14.7915 9.00858 14.815 13.9757 14.8158 17.647" stroke="black" stroke-width="3" stroke-linecap="round"/>
<path d="M15.5039 11.4252C15.6347 11.2382 17.0931 11.2788 17.2965 11.2207" stroke="black" stroke-width="3" stroke-linecap="round"/>
<path d="M5.02105 20.4004C5.01438 20.5912 4.78848 24.2837 4.98912 24.3213C5.09888 24.3419 13.5163 24.3444 13.6255 24.3213" stroke="black" stroke-width="3" stroke-linecap="round"/>
<path d="M21 6.01044C26.5075 5.56517 26.9009 6.01106 26.9009 6.45798C27.6877 11.8121 23.5778 13.5974 22.0042 14.0436" stroke="black" stroke-width="3" stroke-linecap="round"/>
<path d="M31 7.65234C32.0245 7.65234 32.955 7.65234 34 7.65234" stroke="black" stroke-width="3" stroke-linecap="round"/>
<path d="M31 11.3047C32.0245 11.3047 32.955 11.3047 34 11.3047" stroke="black" stroke-width="3" stroke-linecap="round"/>
<path d="M35 4C35 7.64315 35 12.1055 35 15.8696" stroke="black" stroke-width="3" stroke-linecap="round"/>
<path d="M29.85 18.6094C27.3992 18.6094 26 19.3017 26 21.3781C26 23.8017 27.4 24.8401 29.2366 24.9909C31.1137 25.145 33 23.4555 33 21.7247C33 19.6478 32.3 18.6094 29.8508 18.6094" stroke="black" stroke-width="3" stroke-linecap="round"/>
<path d="M5.96484 13.4004V14.0892" stroke="black" stroke-width="3" stroke-linecap="round"/>
</svg>
