<svg width="48" height="47" viewBox="0 0 48 47" fill="none" xmlns="http://www.w3.org/2000/svg">
<path d="M5.47656 1.19141H43.4138" stroke="black" strokeWidth="2" strokeLinecap="round"/>
<path d="M4.54022 1.0957C0.307975 3.76476 1.63673 37.5743 3.93504 42.911" stroke="black" strokeWidth="2" strokeLinecap="round"/>
<path d="M4.57031 43.7156C15.0224 45.2029 38.6865 46.6187 46.0645 42.5879" stroke="black" strokeWidth="2" strokeLinecap="round"/>
<path d="M43.8594 1.0957C46.8832 11.7719 47.01 28.6926 46.2785 42.0213" stroke="black" strokeWidth="2" strokeLinecap="round"/>
<path d="M16.6062 19.7541C17.4982 18.5873 18.7903 17.2302 20.1204 16.7068C21.9553 15.9856 26.8414 15.3255 29.8604 17.83C31.6412 19.7672 33 21.8082 33 25.8655C32.285 31.2653 29.5781 32.9943 28.2816 33.3594C22.0044 35.1273 17.7779 33.275 16.0851 30.4964C14.3922 27.7179 14.7671 22.1607 16.6062 19.7541Z" stroke="black" strokeWidth="2" strokeLinecap="round"/>
<path d="M32.5354 10.2865C32.8327 9.89759 33.2634 9.44523 33.7068 9.27075C34.3184 9.03037 35.9471 8.81033 36.9535 9.64515C37.5471 10.2909 38 10.9712 38 12.3237C37.7617 14.1236 36.8594 14.6999 36.4272 14.8216C34.3348 15.4109 32.926 14.7935 32.3617 13.8673C31.7974 12.9411 31.9224 11.0887 32.5354 10.2865Z" stroke="black" strokeWidth="2" strokeLinecap="round"/>
</svg>
