<svg width="42" height="26" viewBox="0 0 42 26" fill="none" xmlns="http://www.w3.org/2000/svg">
<path d="M7.48409 3.93828C4.62033 4.15598 4.18652 8.1061 5.72977 9.73605C6.52563 10.5766 7.66832 11.0004 8.815 10.8343C12.8635 10.6473 13.2772 3.0983 7.48559 3.93828" stroke="black" stroke-width="3" stroke-linecap="round"/>
<path d="M2.04297 15.1055C3.92596 15.1055 7.08325 15.1055 8.96696 15.1055C10.7157 15.1055 12.4644 15.1055 14.2132 15.1055" stroke="black" stroke-width="3" stroke-linecap="round"/>
<path d="M8.04299 15.4941C8.04135 17.4469 8.16041 21.1916 8.04338 23.5328" stroke="black" stroke-width="3" stroke-linecap="round"/>
<path d="M17.4766 2C17.4766 3.9597 17.4766 21.6596 17.4766 24" stroke="black" stroke-width="3" stroke-linecap="round"/>
<path d="M29.1914 3.87305C29.1914 4.98397 29.1914 5.69071 29.1914 6.68156" stroke="black" stroke-width="3" stroke-linecap="round"/>
<path d="M25.4453 7.61719C26.2844 7.73076 26.9346 7.70241 27.5442 7.70881C28.8445 7.72246 30.145 7.71242 31.4453 7.71242C31.549 7.71242 31.9277 7.63481 31.9889 7.73049C32.0617 7.84414 31.6964 8.50792 31.6737 8.55792C31.3808 9.20412 31.06 9.81038 30.6876 10.3898C29.9154 11.5913 27.5442 13.8587 25.7922 15.1065" stroke="black" stroke-width="3" stroke-linecap="round"/>
<path d="M31.0625 12.2988C31.8723 13.2929 33.5157 14.1761 34.3391 14.6393" stroke="black" stroke-width="3" stroke-linecap="round"/>
<path d="M39.4883 2C39.6401 3.40036 39.6123 4.80997 39.6123 6.2164C39.6123 8.15695 39.6123 10.0975 39.6123 12.0381C39.6123 13.4059 39.4883 21.9816 39.4883 23.4902" stroke="black" stroke-width="3" stroke-linecap="round"/>
</svg>
