<svg width="120" height="106" viewBox="0 0 120 106" fill="none" xmlns="http://www.w3.org/2000/svg">
<ellipse cx="59.9562" cy="53" rx="59.9562" ry="53" fill="#D9D9D9"/>
<path d="M24.1367 47.4216C34.2993 47.4216 44.7977 48.1861 54.9122 46.9961C56.7117 46.7845 53.0875 37.2616 52.6431 35.5085C52.0279 33.0821 51.6815 31.2755 51.8158 28.7247C52.0239 24.7694 55.9319 23.0692 59.356 22.4136C68.4177 20.6783 66.258 33.1953 66.258 38.8886C66.258 41.4249 68.9458 42.6513 71.2218 42.7415C74.1945 42.8592 77.1191 43.3653 80.0858 43.5451C82.8806 43.7145 83.4778 43.5659 84.0804 46.6652C84.972 51.2504 85.0008 56.9007 83.9386 61.4621C83.2954 64.2241 82.307 67.0705 82.024 69.9005C81.9047 71.0939 81.2037 72.125 80.8185 73.2806C80.0003 75.7353 78.8962 74.8972 76.9893 73.7297C74.1398 71.9852 62.9173 67.1114 59.876 71.6733" stroke="black" stroke-width="5" stroke-linecap="round"/>
<path d="M73.0664 56.7815C73.4966 55.9211 76.0418 56.356 76.8956 56.356" stroke="black" stroke-width="5" stroke-linecap="round"/>
<path d="M71.3633 63.5892C72.7657 64.1502 74.6889 63.1551 76.0434 62.7383" stroke="black" stroke-width="5" stroke-linecap="round"/>
</svg>
